<?xml version="1.0" encoding="UTF-8" standalone="no"?>
<!DOCTYPE svg PUBLIC "-//W3C//DTD SVG 1.1//EN"
 "http://www.w3.org/Graphics/SVG/1.1/DTD/svg11.dtd">
<!-- Generated by graphviz version 2.44.1 (0)
 -->
<!-- Title: Graphical Class Hierarchy Pages: 1 -->
<svg width="362pt" height="104pt"
 viewBox="0.00 0.00 362.00 104.00" xmlns="http://www.w3.org/2000/svg" xmlns:xlink="http://www.w3.org/1999/xlink">
<g id="graph0" class="graph" transform="scale(1 1) rotate(0) translate(4 100)">
<title>Graphical Class Hierarchy</title>
<polygon fill="white" stroke="transparent" points="-4,4 -4,-100 358,-100 358,4 -4,4"/>
<!-- Node0 -->
<g id="node1" class="node">
<title>Node0</title>
<g id="a_node1"><a xlink:href="structtypes_1_1Type.html" target="_top" xlink:title="Abstract class representing any type.">
<polygon fill="white" stroke="black" points="0,-19.5 0,-38.5 72,-38.5 72,-19.5 0,-19.5"/>
<text text-anchor="middle" x="36" y="-26.5" font-family="Helvetica,sans-Serif" font-size="10.00">types::Type</text>
</a>
</g>
</g>
<!-- Node1 -->
<g id="node2" class="node">
<title>Node1</title>
<g id="a_node2"><a xlink:href="classtypes_1_1ContainerType.html" target="_top" xlink:title="A type that &quot;contains&quot; another type, e.g. pointer, vector, etc.">
<polygon fill="white" stroke="black" points="108,-38.5 108,-57.5 227,-57.5 227,-38.5 108,-38.5"/>
<text text-anchor="middle" x="167.5" y="-45.5" font-family="Helvetica,sans-Serif" font-size="10.00">types::ContainerType</text>
</a>
</g>
</g>
<!-- Node0&#45;&gt;Node1 -->
<g id="edge1" class="edge">
<title>Node0&#45;&gt;Node1</title>
<path fill="none" stroke="midnightblue" d="M81.99,-35.6C90.37,-36.83 99.25,-38.13 107.97,-39.41"/>
<polygon fill="midnightblue" stroke="midnightblue" points="82.45,-32.13 72.04,-34.14 81.43,-39.06 82.45,-32.13"/>
</g>
<!-- Node5 -->
<g id="node6" class="node">
<title>Node5</title>
<g id="a_node6"><a xlink:href="structtypes_1_1PrimType.html" target="_top" xlink:title="Represents a primitive type.">
<polygon fill="white" stroke="black" points="120,-0.5 120,-19.5 215,-19.5 215,-0.5 120,-0.5"/>
<text text-anchor="middle" x="167.5" y="-7.5" font-family="Helvetica,sans-Serif" font-size="10.00">types::PrimType</text>
</a>
</g>
</g>
<!-- Node0&#45;&gt;Node5 -->
<g id="edge5" class="edge">
<title>Node0&#45;&gt;Node5</title>
<path fill="none" stroke="midnightblue" d="M82.01,-22.4C94.21,-20.61 107.45,-18.66 119.75,-16.86"/>
<polygon fill="midnightblue" stroke="midnightblue" points="81.43,-18.94 72.04,-23.86 82.45,-25.87 81.43,-18.94"/>
</g>
<!-- Node2 -->
<g id="node3" class="node">
<title>Node2</title>
<g id="a_node3"><a xlink:href="structtypes_1_1Function.html" target="_top" xlink:title="Represents a function type.">
<polygon fill="white" stroke="black" points="263,-76.5 263,-95.5 354,-95.5 354,-76.5 263,-76.5"/>
<text text-anchor="middle" x="308.5" y="-83.5" font-family="Helvetica,sans-Serif" font-size="10.00">types::Function</text>
</a>
</g>
</g>
<!-- Node1&#45;&gt;Node2 -->
<g id="edge2" class="edge">
<title>Node1&#45;&gt;Node2</title>
<path fill="none" stroke="midnightblue" d="M213.3,-60.25C232.45,-65.48 254.49,-71.51 272.44,-76.41"/>
<polygon fill="midnightblue" stroke="midnightblue" points="214.14,-56.85 203.58,-57.59 212.3,-63.6 214.14,-56.85"/>
</g>
<!-- Node3 -->
<g id="node4" class="node">
<title>Node3</title>
<g id="a_node4"><a xlink:href="structtypes_1_1Pointer.html" target="_top" xlink:title="Represents a pointer type.">
<polygon fill="white" stroke="black" points="266.5,-38.5 266.5,-57.5 350.5,-57.5 350.5,-38.5 266.5,-38.5"/>
<text text-anchor="middle" x="308.5" y="-45.5" font-family="Helvetica,sans-Serif" font-size="10.00">types::Pointer</text>
</a>
</g>
</g>
<!-- Node1&#45;&gt;Node3 -->
<g id="edge3" class="edge">
<title>Node1&#45;&gt;Node3</title>
<path fill="none" stroke="midnightblue" d="M237.33,-48C247.25,-48 257.18,-48 266.32,-48"/>
<polygon fill="midnightblue" stroke="midnightblue" points="237.05,-44.5 227.05,-48 237.05,-51.5 237.05,-44.5"/>
</g>
<!-- Node4 -->
<g id="node5" class="node">
<title>Node4</title>
<g id="a_node5"><a xlink:href="structtypes_1_1Vector.html" target="_top" xlink:title="Represents a vector type.">
<polygon fill="white" stroke="black" points="268.5,-0.5 268.5,-19.5 348.5,-19.5 348.5,-0.5 268.5,-0.5"/>
<text text-anchor="middle" x="308.5" y="-7.5" font-family="Helvetica,sans-Serif" font-size="10.00">types::Vector</text>
</a>
</g>
</g>
<!-- Node1&#45;&gt;Node4 -->
<g id="edge4" class="edge">
<title>Node1&#45;&gt;Node4</title>
<path fill="none" stroke="midnightblue" d="M213.3,-35.75C232.45,-30.52 254.49,-24.49 272.44,-19.59"/>
<polygon fill="midnightblue" stroke="midnightblue" points="212.3,-32.4 203.58,-38.41 214.14,-39.15 212.3,-32.4"/>
</g>
</g>
</svg>
